<?xml version="1.0" encoding="utf-8"?>
<!-- Generator: Adobe Illustrator 24.2.1, SVG Export Plug-In . SVG Version: 6.00 Build 0)  -->
<svg version="1.1" id="レイヤー_1" xmlns="http://www.w3.org/2000/svg" xmlns:xlink="http://www.w3.org/1999/xlink" x="0px"
	 y="0px" viewBox="0 0 71.19 70.92" style="enable-background:new 0 0 71.19 70.92;" xml:space="preserve">
<style type="text/css">
	.st0{fill:#FF2800;}
	.st1{fill:#FFFFFF;}
</style>
<polygon class="st0" points="58.43,29.51 58.43,12.73 41.65,12.73 41.65,0 39.26,0 39.26,15.11 56.04,15.12 56.04,31.9 71.19,31.9 
	71.19,29.51 "/>
<path class="st1" d="M4.59,53.59H0.65v16.89h3.94V53.59z M2.08,55.02h1.08v14.03H2.08V55.02z M27.29,69.67
	c2.66-1.54,4.38-4.51,4.38-7.58c0-3.08-1.68-6.05-4.29-7.55c-1.5-0.86-3.37-1.3-5.54-1.3c-4.66,0-8.17,2.26-9.39,6.03
	c-0.32,0.94-0.49,1.97-0.49,2.9c0,3.22,1.94,6.35,4.82,7.79c1.72,0.86,3.46,0.97,4.94,0.97C24.05,70.92,25.82,70.52,27.29,69.67z
	 M26.67,55.77c2.13,1.23,3.57,3.77,3.57,6.32c0,2.57-1.44,5.05-3.67,6.34l0,0c-1.25,0.73-2.78,1.06-4.85,1.06
	c-1.31,0-2.84-0.1-4.29-0.82c-2.41-1.21-4.03-3.82-4.03-6.51c0-0.78,0.15-1.65,0.42-2.45c1.47-4.55,6.1-5.04,8.03-5.04
	C23.77,54.66,25.39,55.04,26.67,55.77z M29.09,61.99c0-4.31-3.74-6.28-7.22-6.28c-3.64,0-7.32,2.21-7.32,6.44
	c0,4.15,3.67,6.32,7.29,6.32C26.11,68.48,29.09,65.82,29.09,61.99z M27.66,61.99c0,3.48-3.02,5.06-5.82,5.06
	c-2.91,0-5.86-1.68-5.86-4.89c0-3.44,3.05-5.01,5.89-5.01C24.75,57.15,27.66,58.65,27.66,61.99z M53.24,69.67
	c2.66-1.54,4.38-4.51,4.38-7.58c0-3.08-1.68-6.05-4.29-7.55c-1.5-0.86-3.37-1.3-5.54-1.3c-4.66,0-8.17,2.26-9.39,6.03
	c-0.32,0.94-0.49,1.97-0.49,2.9c0,3.22,1.94,6.35,4.82,7.79c1.72,0.86,3.46,0.97,4.94,0.97C50,70.92,51.76,70.52,53.24,69.67z
	 M52.62,55.77c2.13,1.23,3.57,3.77,3.57,6.32c0,2.57-1.44,5.05-3.67,6.34l0,0c-1.25,0.73-2.78,1.06-4.85,1.06
	c-1.31,0-2.84-0.1-4.29-0.82c-2.41-1.21-4.03-3.82-4.03-6.51c0-0.78,0.15-1.65,0.42-2.45c1.47-4.55,6.1-5.04,8.03-5.04
	C49.71,54.66,51.34,55.04,52.62,55.77z M55.04,61.99c0-4.31-3.74-6.28-7.22-6.28c-3.64,0-7.32,2.21-7.32,6.44
	c0,4.15,3.67,6.32,7.29,6.32C52.06,68.48,55.04,65.82,55.04,61.99z M53.61,61.99c0,3.48-3.02,5.06-5.82,5.06
	c-2.91,0-5.86-1.68-5.86-4.89c0-3.44,3.05-5.01,5.89-5.01C50.7,57.15,53.61,58.65,53.61,61.99z"/>
<path class="st1" d="M9.43,15.12H8.55l-1.82,5.73l-1.61-5.73H4.3l-1.48,5.73l-1.94-5.73H0l2.47,7.24h0.8l1.46-5.58l1.57,5.58h0.78
	L9.43,15.12z M18.62,18.72c0-2.17-1.74-3.77-3.88-3.77s-3.94,1.65-3.94,3.82c0,2.14,1.77,3.77,3.88,3.77
	C16.86,22.54,18.62,20.93,18.62,18.72z M17.75,18.74c0,1.71-1.37,2.94-3.05,2.94c-1.64,0-3.04-1.24-3.04-2.92
	c0-1.71,1.42-2.95,3.09-2.95C16.42,15.82,17.75,17.06,17.75,18.74z M27.7,17.25c0-0.66-0.32-1.37-0.88-1.73
	c-0.55-0.36-0.88-0.4-2.05-0.4h-3.62v7.24h0.85v-2.99h2.88l1.68,2.99h0.98l-1.68-2.99c0.44-0.08,0.75-0.15,1.1-0.45
	C27.43,18.51,27.7,17.88,27.7,17.25z M26.85,17.26c0,0.39-0.17,0.8-0.49,1.03c-0.29,0.2-0.59,0.22-1.24,0.22h-3.12v-2.54h3.28
	C26.11,15.97,26.85,16.31,26.85,17.26z M36.58,22.35l-2.96-4.7l2.54-2.54h-1.13L31,19.07v-3.95h-0.86v7.24H31V20.2l2.01-1.91
	l2.56,4.06H36.58z M7.22,31.89c0-0.8-0.5-1.57-1.25-1.88c-0.46-0.19-0.98-0.24-1.48-0.24l-1.08-0.01c-0.92-0.01-1.14-0.06-1.47-0.23
	c-0.26-0.15-0.43-0.45-0.43-0.75c0-1.01,1.45-1.32,2.23-1.32c1.03,0,1.73,0.28,2.56,0.87l0.53-0.67c-0.94-0.72-1.88-1.07-3.06-1.07
	c-1.32,0-3.12,0.58-3.12,2.18c0,0.56,0.27,1.12,0.74,1.43c0.44,0.28,0.88,0.39,1.79,0.4l1.53,0.02c0.74,0.01,1.64,0.36,1.64,1.23
	c0,1.19-1.68,1.45-2.58,1.45c-1.35,0-2.1-0.36-3.05-1.3l-0.61,0.6c1.09,1.11,2.11,1.56,3.67,1.56C5.2,34.17,7.22,33.64,7.22,31.89z
	 M14.94,27.61v-0.85H8.79v0.85h2.64v6.38h0.85v-6.38H14.94z M24.26,30.36c0-2.17-1.74-3.77-3.88-3.77s-3.94,1.65-3.94,3.82
	c0,2.14,1.77,3.77,3.88,3.77C22.5,34.17,24.26,32.57,24.26,30.36z M23.4,30.38c0,1.71-1.37,2.94-3.05,2.94
	c-1.64,0-3.04-1.24-3.04-2.92c0-1.71,1.42-2.95,3.09-2.95C22.06,27.45,23.4,28.69,23.4,30.38z M33.34,28.88
	c0-0.66-0.32-1.37-0.88-1.73c-0.55-0.36-0.88-0.4-2.05-0.4h-3.62v7.24h0.85V31h2.88l1.68,2.99h0.98L31.48,31
	c0.44-0.08,0.75-0.15,1.1-0.45C33.07,30.14,33.34,29.51,33.34,28.88z M32.49,28.89c0,0.39-0.17,0.8-0.49,1.03
	c-0.29,0.2-0.59,0.22-1.24,0.22h-3.12v-2.54h3.28C31.75,27.61,32.49,27.94,32.49,28.89z M41.64,26.75h-1.11l-2.41,3.06l-2.41-3.06
	H34.6l3.07,3.9v3.33h0.85v-3.33L41.64,26.75z M7.73,45.76l-3.39-7.24H3.47l-3.45,7.24h0.95l1.14-2.49H5.6l1.18,2.49H7.73z
	 M5.22,42.43H2.54l1.36-2.87L5.22,42.43z M17.89,38.53h-0.88l-1.82,5.73l-1.61-5.73h-0.81l-1.48,5.73l-1.94-5.73H8.46l2.47,7.24h0.8
	l1.46-5.58l1.57,5.58h0.78L17.89,38.53z M26.27,45.76l-3.39-7.24h-0.87l-3.45,7.24h0.95l1.14-2.49h3.49l1.18,2.49H26.27z
	 M23.76,42.43h-2.68l1.36-2.87L23.76,42.43z M34.69,40.66c0-0.66-0.32-1.37-0.88-1.73c-0.55-0.36-0.88-0.4-2.05-0.4h-3.62v7.24h0.85
	v-2.99h2.88l1.68,2.99h0.98l-1.68-2.99c0.44-0.08,0.75-0.15,1.1-0.45C34.42,41.92,34.69,41.29,34.69,40.66z M33.83,40.67
	c0,0.39-0.17,0.8-0.49,1.03c-0.29,0.2-0.59,0.22-1.24,0.22h-3.12v-2.54h3.28C33.1,39.38,33.83,39.72,33.83,40.67z M44.04,42.17
	c0-1.06-0.71-3.64-3.35-3.64h-3.56v7.24h3.66C42.67,45.76,44.04,43.96,44.04,42.17z M43.19,42.14c0,1.32-0.98,2.77-2.4,2.77h-2.81
	v-5.53h2.71C42.13,39.38,43.19,40.6,43.19,42.14z"/>
<polygon class="st1" points="54.86,30.71 40.46,16.31 43.84,16.31 54.86,27.34 "/>
<polygon class="st1" points="41.65,3.37 49.02,10.73 52.39,10.73 41.65,0 "/>
<polygon class="st1" points="71.19,29.51 71.19,29.51 60.44,18.77 60.44,22.14 67.82,29.51 "/>
<rect x="0.64" y="0" class="st1" width="38.62" height="2.38"/>
<rect x="68.8" y="31.9" class="st1" width="2.39" height="38.65"/>
</svg>
